<svg width="22" height="22" viewBox="0 0 22 22" fill="none" xmlns="http://www.w3.org/2000/svg">
<path d="M11 0.5C8.9233 0.5 6.89323 1.11581 5.16652 2.26957C3.4398 3.42332 2.09399 5.0632 1.29927 6.98182C0.504549 8.90045 0.296614 11.0116 0.701759 13.0484C1.1069 15.0852 2.10693 16.9562 3.57538 18.4246C5.04383 19.8931 6.91476 20.8931 8.95156 21.2982C10.9884 21.7034 13.0996 21.4955 15.0182 20.7007C16.9368 19.906 18.5767 18.5602 19.7304 16.8335C20.8842 15.1068 21.5 13.0767 21.5 11C21.5 8.21523 20.3938 5.54451 18.4246 3.57538C16.4555 1.60625 13.7848 0.5 11 0.5ZM16.4075 8.1575L9.65751 14.9075C9.58743 14.977 9.50431 15.032 9.41294 15.0693C9.32156 15.1067 9.22371 15.1256 9.125 15.125H9.08C8.97504 15.118 8.87272 15.089 8.77969 15.0399C8.68666 14.9908 8.60499 14.9227 8.54 14.84L5.54 11.09C5.46872 11.0145 5.41389 10.925 5.379 10.8272C5.34411 10.7293 5.32991 10.6253 5.33731 10.5217C5.34471 10.4181 5.37355 10.3172 5.42199 10.2254C5.47043 10.1335 5.53742 10.0527 5.61872 9.98806C5.70002 9.92344 5.79386 9.87641 5.89429 9.84994C5.99471 9.82348 6.09954 9.81816 6.20213 9.83432C6.30472 9.85048 6.40284 9.88778 6.49026 9.94384C6.57768 9.9999 6.65251 10.0735 6.71 10.16L9.18501 13.25L15.3425 7.0925C15.4837 6.95127 15.6753 6.87193 15.875 6.87193C16.0747 6.87193 16.2663 6.95127 16.4075 7.0925C16.5487 7.23373 16.6281 7.42527 16.6281 7.625C16.6281 7.82473 16.5487 8.01627 16.4075 8.1575Z" fill="#F98125"/>
</svg>
