<svg width="32" height="32" viewBox="0 0 32 32" fill="none" xmlns="http://www.w3.org/2000/svg">
<path d="M29.1875 13.1875H18.8125V2.8125C18.8125 1.25919 17.5533 0 16 0C14.4467 0 13.1875 1.25919 13.1875 2.8125V13.1875H2.8125C1.25919 13.1875 0 14.4467 0 16C0 17.5533 1.25919 18.8125 2.8125 18.8125H13.1875V29.1875C13.1875 30.7408 14.4467 32 16 32C17.5533 32 18.8125 30.7408 18.8125 29.1875V18.8125H29.1875C30.7408 18.8125 32 17.5533 32 16C32 14.4467 30.7408 13.1875 29.1875 13.1875Z" fill="#0474BA"/>
</svg>
