<svg width="24" height="24" viewBox="0 0 24 24" fill="none" xmlns="http://www.w3.org/2000/svg">
<path d="M11.8886 16.5257V14.0117" stroke="#666666" stroke-width="1.5" stroke-linecap="round" stroke-linejoin="round"/>
<path fill-rule="evenodd" clip-rule="evenodd" d="M18.0284 5.28198C19.7034 5.28198 21.0513 6.63957 21.0513 8.31427V11.7231C18.6131 13.1501 15.392 14.0122 11.8835 14.0122C8.37494 14.0122 5.16373 13.1501 2.72559 11.7231V8.30436C2.72559 6.62966 4.08341 5.28198 5.7584 5.28198H18.0284Z" stroke="#666666" stroke-width="1.5" stroke-linecap="round" stroke-linejoin="round"/>
<path d="M15.3577 5.27752V4.91484C15.3577 3.70589 14.3765 2.72485 13.1674 2.72485H10.6103C9.40113 2.72485 8.41992 3.70589 8.41992 4.91484V5.27752" stroke="#666666" stroke-width="1.5" stroke-linecap="round" stroke-linejoin="round"/>
<path d="M2.75 15.3428L2.93732 17.829C3.06418 19.5047 4.46066 20.7999 6.1406 20.7999H17.6365C19.3165 20.7999 20.713 19.5047 20.8398 17.829L21.0271 15.3428" stroke="#666666" stroke-width="1.5" stroke-linecap="round" stroke-linejoin="round"/>
</svg>
