<svg width="20" height="20" viewBox="0 0 20 20" fill="currentColor" xmlns="http://www.w3.org/2000/svg">
<path fill-rule="evenodd" clip-rule="evenodd" d="M0 6.25C0 4.86929 1.11929 3.75 2.5 3.75L11.875 3.75C13.1448 3.75 14.1935 4.69666 14.3538 5.92271L18.2423 4.19446C19.0689 3.82708 20 4.43215 20 5.33673V14.6633C20 15.5678 19.0689 16.1729 18.2423 15.8055L14.3538 14.0773C14.1935 15.3033 13.1448 16.25 11.875 16.25H2.5C1.11929 16.25 0 15.1307 0 13.75L0 6.25ZM14.375 12.7188L18.75 14.6633L18.75 5.33673L14.375 7.28117L14.375 12.7188ZM2.5 5C1.80964 5 1.25 5.55964 1.25 6.25L1.25 13.75C1.25 14.4404 1.80964 15 2.5 15L11.875 15C12.5654 15 13.125 14.4404 13.125 13.75L13.125 6.25C13.125 5.55964 12.5654 5 11.875 5L2.5 5Z" fill="currentColor"/>
</svg>
