<svg width="20" height="20" viewBox="0 0 20 20" fill="none" xmlns="http://www.w3.org/2000/svg">
<g clip-path="url(#clip0_125_2398)">
<path d="M11.8323 10.0164L19.6199 2.22859C20.1267 1.72202 20.1267 0.902971 19.6199 0.396405C19.1133 -0.110162 18.2943 -0.110162 17.7877 0.396405L9.99989 8.18425L2.21228 0.396405C1.70548 -0.110162 0.88667 -0.110162 0.380103 0.396405C-0.126701 0.902971 -0.126701 1.72202 0.380103 2.22859L8.16771 10.0164L0.380103 17.8043C-0.126701 18.3108 -0.126701 19.1299 0.380103 19.6364C0.632556 19.8891 0.964494 20.0161 1.29619 20.0161C1.62789 20.0161 1.95959 19.8891 2.21228 19.6364L9.99989 11.8486L17.7877 19.6364C18.0404 19.8891 18.3721 20.0161 18.7038 20.0161C19.0355 20.0161 19.3672 19.8891 19.6199 19.6364C20.1267 19.1299 20.1267 18.3108 19.6199 17.8043L11.8323 10.0164Z" fill="white"/>
</g>
<defs>
<clipPath id="clip0_125_2398">
<rect width="20" height="20" fill="white"/>
</clipPath>
</defs>
</svg>
