<svg width="12" height="12" viewBox="0 0 12 12" fill="none" xmlns="http://www.w3.org/2000/svg">
<g clip-path="url(#clip0_244_978)">
<path d="M11.8355 3.53407C11.6937 3.41306 11.4937 3.38756 11.3261 3.46917L8.76097 4.71792L6.35412 1.94288C6.26511 1.84022 6.1359 1.78125 6 1.78125C5.86411 1.78125 5.73493 1.84022 5.64589 1.94288L3.23904 4.7179L0.67395 3.46915C0.506302 3.38756 0.306286 3.41304 0.16449 3.53405C0.0226927 3.65505 -0.0339323 3.8486 0.0202786 4.02696L1.80153 9.88634C1.86155 10.0838 2.04364 10.2188 2.25001 10.2188H9.75C9.95635 10.2188 10.1385 10.0838 10.1985 9.88636L11.9797 4.02698C12.0339 3.84862 11.9773 3.65508 11.8355 3.53407ZM9.40254 9.28125H2.59742L1.22982 4.78247L3.15221 5.71835C3.34308 5.81126 3.57244 5.76434 3.7115 5.60402L6 2.96543L8.28854 5.60402C8.42757 5.76436 8.657 5.81123 8.8478 5.71835L10.7702 4.78247L9.40254 9.28125Z" fill="white"/>
</g>
<defs>
<clipPath id="clip0_244_978">
<rect width="12" height="12" fill="white"/>
</clipPath>
</defs>
</svg>
