<svg width="24" height="24" viewBox="0 0 24 24" fill="none" xmlns="http://www.w3.org/2000/svg">
<g clip-path="url(#clip0_1388_2286)">
<rect width="24" height="24" rx="12" fill="white"/>
<path d="M12 24C5.38312 24 0 18.6169 0 12C0 5.38312 5.38312 0 12 0C18.6169 0 24 5.38312 24 12C24 18.6169 18.6169 24 12 24ZM12 1.71423C6.32849 1.71423 1.71423 6.32849 1.71423 12C1.71423 17.6715 6.32849 22.2858 12 22.2858C17.6715 22.2858 22.2858 17.6715 22.2858 12C22.2858 6.32849 17.6715 1.71423 12 1.71423Z" fill="black"/>
<path d="M16.2858 17.1428C16.0664 17.1428 15.8471 17.0592 15.6797 16.8916L7.10835 8.32026C6.77345 7.98536 6.77345 7.443 7.10835 7.10828C7.44307 6.77357 7.98561 6.77338 8.32033 7.10828L16.8917 15.6796C17.2266 16.0145 17.2266 16.5569 16.8917 16.8916C16.7243 17.0592 16.5051 17.1428 16.2858 17.1428Z" fill="black"/>
<path d="M7.71425 17.1429C7.49489 17.1429 7.27571 17.0592 7.10835 16.8917C6.77345 16.557 6.77345 16.0144 7.10835 15.6797L15.6797 7.10835C16.0146 6.77345 16.557 6.77345 16.8917 7.10835C17.2264 7.44307 17.2266 7.98561 16.8917 8.32033L8.32033 16.8917C8.15297 17.0592 7.93361 17.1429 7.71425 17.1429Z" fill="black"/>
<g clip-path="url(#clip1_1388_2286)">
<path d="M12 24C5.38312 24 0 18.6169 0 12C0 5.38312 5.38312 0 12 0C18.6169 0 24 5.38312 24 12C24 18.6169 18.6169 24 12 24ZM12 1.71423C6.32849 1.71423 1.71423 6.32849 1.71423 12C1.71423 17.6715 6.32849 22.2858 12 22.2858C17.6715 22.2858 22.2858 17.6715 22.2858 12C22.2858 6.32849 17.6715 1.71423 12 1.71423Z" fill="#CCCCCC"/>
<path d="M16.2858 17.1428C16.0664 17.1428 15.8471 17.0592 15.6797 16.8916L7.10835 8.32026C6.77345 7.98536 6.77345 7.443 7.10835 7.10828C7.44307 6.77357 7.98561 6.77338 8.32033 7.10828L16.8917 15.6796C17.2266 16.0145 17.2266 16.5569 16.8917 16.8916C16.7243 17.0592 16.5051 17.1428 16.2858 17.1428Z" fill="#CCCCCC"/>
<path d="M7.71425 17.1429C7.49489 17.1429 7.27571 17.0592 7.10835 16.8917C6.77345 16.557 6.77345 16.0144 7.10835 15.6797L15.6797 7.10835C16.0146 6.77345 16.557 6.77345 16.8917 7.10835C17.2264 7.44307 17.2266 7.98561 16.8917 8.32033L8.32033 16.8917C8.15297 17.0592 7.93361 17.1429 7.71425 17.1429Z" fill="#CCCCCC"/>
</g>
</g>
<defs>
<clipPath id="clip0_1388_2286">
<rect width="24" height="24" rx="12" fill="white"/>
</clipPath>
<clipPath id="clip1_1388_2286">
<rect width="24" height="24" fill="white"/>
</clipPath>
</defs>
</svg>
