<svg width="48" height="48" viewBox="0 0 48 48" fill="none" xmlns="http://www.w3.org/2000/svg">
<g clip-path="url(#clip0_3094_3868)">
<path d="M46.7692 38.9429L9.15154 1.32519C7.51092 -0.315426 4.85108 -0.315426 3.21303 1.32519L1.23046 3.30469C-0.410153 4.94581 -0.410153 7.60565 1.23046 9.2437L38.8481 46.8614C40.4893 48.502 43.1491 48.502 44.7872 46.8614L46.7667 44.8819C48.4103 43.2438 48.4103 40.5835 46.7692 38.9429Z" fill="#E02F2F"/>
<path d="M38.8481 1.3248L1.23046 38.9425C-0.410153 40.5831 -0.410153 43.2434 1.23046 44.8815L3.20996 46.861C4.85108 48.5016 7.51092 48.5016 9.14897 46.861L46.7692 9.24588C48.4103 7.60527 48.4103 4.94542 46.7692 3.30738L44.7897 1.32788C43.1491 -0.315811 40.4893 -0.315811 38.8481 1.3248Z" fill="#E02F2F"/>
</g>
<defs>
<clipPath id="clip0_3094_3868">
<rect width="48" height="48" fill="white"/>
</clipPath>
</defs>
</svg>
