<svg width="20" height="20" viewBox="0 0 20 20" fill="currentColor" xmlns="http://www.w3.org/2000/svg">
<path d="M9.16663 5.83366H10.8333V7.50033H9.16663V5.83366ZM9.16663 9.16699H10.8333V14.167H9.16663V9.16699ZM9.99996 1.66699C5.39996 1.66699 1.66663 5.40033 1.66663 10.0003C1.66663 14.6003 5.39996 18.3337 9.99996 18.3337C14.6 18.3337 18.3333 14.6003 18.3333 10.0003C18.3333 5.40033 14.6 1.66699 9.99996 1.66699ZM9.99996 16.667C6.32496 16.667 3.33329 13.6753 3.33329 10.0003C3.33329 6.32533 6.32496 3.33366 9.99996 3.33366C13.675 3.33366 16.6666 6.32533 16.6666 10.0003C16.6666 13.6753 13.675 16.667 9.99996 16.667Z" fill="currentColor"/>
</svg>
