<svg width="24" height="24" viewBox="0 0 24 24" fill="none" xmlns="http://www.w3.org/2000/svg">
<path fill-rule="evenodd" clip-rule="evenodd" d="M4.44732 17.3158C4.82515 17.4856 4.99382 17.9295 4.82406 18.3073C4.70659 18.5688 4.71763 18.8335 4.94385 19.155C5.19645 19.514 5.70773 19.9142 6.5251 20.2739C7.33063 20.6284 8.35062 20.9068 9.50517 21.0742C10.6573 21.2413 11.8922 21.2905 13.1038 21.2164C14.3163 21.1421 15.4571 20.9474 16.4306 20.6546C17.4112 20.3597 18.1563 19.9851 18.6375 19.5911C19.1203 19.1959 19.2502 18.8594 19.2502 18.6275C19.2502 18.2133 19.586 17.8775 20.0002 17.8775C20.4144 17.8775 20.7502 18.2133 20.7502 18.6275C20.7502 19.4699 20.2714 20.1921 19.5876 20.7518C18.9022 21.3129 17.9564 21.7621 16.8626 22.091C15.7618 22.4221 14.5047 22.6334 13.1954 22.7136C11.8852 22.7937 10.5474 22.7411 9.28987 22.5587C8.03482 22.3767 6.87806 22.0681 5.92089 21.6468C4.97555 21.2308 4.18915 20.689 3.7171 20.0181C3.21868 19.3098 3.09907 18.4866 3.45582 17.6926C3.62558 17.3147 4.06949 17.1461 4.44732 17.3158Z" fill="#666666"/>
<path fill-rule="evenodd" clip-rule="evenodd" d="M14.2856 17.0647L17.0693 10.7257C18.541 7.37456 16.016 3.5 12 3.5C7.984 3.5 5.45904 7.37456 6.93066 10.7257L9.71438 17.0647C10.0852 17.9092 10.9718 18.5 12 18.5C13.0282 18.5 13.9148 17.9092 14.2856 17.0647ZM12 2C6.99693 2 3.61256 6.90042 5.55725 11.3288L8.34098 17.6678C8.96166 19.0812 10.4032 20 12 20C13.5968 20 15.0383 19.0812 15.659 17.6678L18.4427 11.3288C20.3874 6.90042 17.0031 2 12 2Z" fill="#666666"/>
<path fill-rule="evenodd" clip-rule="evenodd" d="M12 6.75C11.3096 6.75 10.75 7.30964 10.75 8C10.75 8.69036 11.3096 9.25 12 9.25C12.6904 9.25 13.25 8.69036 13.25 8C13.25 7.30964 12.6904 6.75 12 6.75ZM9.25 8C9.25 6.48122 10.4812 5.25 12 5.25C13.5188 5.25 14.75 6.48122 14.75 8C14.75 9.51878 13.5188 10.75 12 10.75C10.4812 10.75 9.25 9.51878 9.25 8Z" fill="#666666"/>
</svg>
