<svg width="20" height="20" viewBox="0 0 20 20" fill="currentColor" xmlns="http://www.w3.org/2000/svg">
<g clip-path="url(#clip0_1967_9847)">
<path d="M10.7227 15.3369H9.25781V13.8721H10.7227V15.3369ZM10.7227 11.0575C12.1389 10.7149 13.1201 9.43005 13.0641 7.9771C13.0033 6.39496 11.7052 5.10841 10.109 5.04868C9.25621 5.01652 8.45078 5.32196 7.84195 5.90824C7.24354 6.48468 6.91406 7.25796 6.91406 8.08594H8.37891C8.37891 7.65965 8.54897 7.26093 8.85796 6.96339C9.17759 6.65554 9.60205 6.4959 10.0541 6.51237C10.8896 6.54385 11.5688 7.21184 11.6004 8.03341C11.6297 8.79902 11.1013 9.47548 10.3436 9.64176C9.70425 9.78207 9.25781 10.3346 9.25781 10.9854V12.4072H10.7227V11.0575ZM16.6193 16.6193C18.3901 14.8487 19.3652 12.4943 19.3652 9.99023C19.3652 7.48615 18.3901 5.13176 16.6193 3.36113C14.8487 1.59039 12.4943 0.615234 9.99023 0.615234C7.48615 0.615234 5.13176 1.59039 3.36113 3.36113C1.59039 5.13176 0.615234 7.48615 0.615234 9.99023C0.615234 12.4943 1.59039 14.8487 3.36113 16.6193C5.13176 18.3901 7.48615 19.3652 9.99023 19.3652C12.4943 19.3652 14.8487 18.3901 16.6193 16.6193ZM17.9004 9.99023C17.9004 14.3518 14.3518 17.9004 9.99023 17.9004C5.62866 17.9004 2.08008 14.3518 2.08008 9.99023C2.08008 5.62866 5.62866 2.08008 9.99023 2.08008C14.3518 2.08008 17.9004 5.62866 17.9004 9.99023Z" fill="currentColor"/>
</g>
<defs>
<clipPath id="clip0_1967_9847">
<rect width="20" height="20" fill="white"/>
</clipPath>
</defs>
</svg>
