<svg width="48" height="48" viewBox="0 0 48 48" fill="none" xmlns="http://www.w3.org/2000/svg">
<path d="M45.4475 27.9754L45.4335 27.9824C43.7882 29.2441 43.0911 31.3913 43.6767 33.3782L43.6837 33.3922C44.6178 36.5503 42.3034 39.7361 39.0128 39.8198H38.9989C36.9214 39.8756 35.0949 41.2001 34.4047 43.1591V43.166C33.3031 46.2752 29.5526 47.4952 26.8407 45.6198C25.1568 44.47 22.9307 44.41 21.159 45.6198H21.1521C18.4403 47.4882 14.6896 46.2751 13.5951 43.159C12.8987 41.1951 11.0749 39.8754 9.00094 39.8197H8.98697C5.69654 39.736 3.38194 36.5502 4.31616 33.3921L4.3231 33.3781C4.90857 31.3912 4.21144 29.244 2.56632 27.9823L2.55235 27.9753C-0.0619645 25.9675 -0.0619645 22.0357 2.55235 20.028L2.56632 20.021C4.21144 18.7592 4.90857 16.612 4.31616 14.6251V14.6112C3.37491 11.4532 5.69644 8.2672 8.98697 8.18358H9.00094C11.0714 8.1278 12.9049 6.8032 13.5951 4.8443V4.83736C14.6895 1.72814 18.4403 0.50817 21.1521 2.38355H21.159C22.8669 3.5617 25.1257 3.5617 26.8407 2.38355C29.5799 0.491951 33.3096 1.7468 34.4047 4.83736V4.8443C35.0949 6.79626 36.9213 8.12789 38.9989 8.18358H39.0128C42.3033 8.2672 44.6178 11.4532 43.6837 14.6112L43.6767 14.6251C43.0911 16.612 43.7882 18.7592 45.4335 20.021L45.4475 20.028C48.0618 22.0357 48.0618 25.9676 45.4475 27.9754Z" fill="#3EB655"/>
<path d="M24 36.986C31.172 36.986 36.986 31.172 36.986 24C36.986 16.8281 31.172 11.014 24 11.014C16.8281 11.014 11.014 16.8281 11.014 24C11.014 31.172 16.8281 36.986 24 36.986Z" fill="#8BD399"/>
<path opacity="0.1" d="M33.9708 15.6875C31.7246 13.8397 28.8509 12.729 25.7182 12.729C18.5463 12.729 12.7291 18.5462 12.7291 25.7181C12.7291 28.8508 13.8397 31.7246 15.6875 33.9707C12.8336 31.5901 11.0158 28.0092 11.0158 23.9998C11.0158 16.8279 16.828 11.0157 23.9999 11.0157C28.0092 11.0157 31.5902 12.8336 33.9708 15.6875Z" fill="black"/>
<path d="M20.9105 29.0838L18.0388 26.0286C17.2867 25.2284 17.3256 23.9702 18.1255 23.2181C18.9255 22.4651 20.1843 22.5055 20.9357 23.3052L22.3065 24.763L28.1333 18.1032C28.8556 17.2767 30.1118 17.1929 30.939 17.9162C31.7655 18.6394 31.8489 19.8953 31.126 20.7218L23.8552 29.0313C23.0807 29.9157 21.7137 29.9388 20.9105 29.0838Z" fill="white"/>
</svg>
