<svg width="21" height="22" viewBox="0 0 21 22" fill="none" xmlns="http://www.w3.org/2000/svg">
<path fill-rule="evenodd" clip-rule="evenodd" d="M2.75 9.17817C2.75 7.21756 4.33939 5.62817 6.3 5.62817H16.7C18.6606 5.62817 20.25 7.21756 20.25 9.17817V17.5782C20.25 19.5388 18.6606 21.1282 16.7 21.1282H6.3C4.33939 21.1282 2.75 19.5388 2.75 17.5782V9.17817ZM6.3 7.12817C5.16782 7.12817 4.25 8.04599 4.25 9.17817V17.5782C4.25 18.7104 5.16782 19.6282 6.3 19.6282H16.7C17.8322 19.6282 18.75 18.7104 18.75 17.5782V9.17817C18.75 8.04599 17.8322 7.12817 16.7 7.12817H6.3Z" fill="#F98125"/>
<path fill-rule="evenodd" clip-rule="evenodd" d="M8.45354 11.8783C8.32996 11.7254 8.08638 11.7684 8.02261 11.9544L6.66335 15.9189C6.60771 16.0812 6.7283 16.25 6.89983 16.25H15.5679C15.7707 16.25 15.8891 16.0212 15.772 15.8556L13.9931 13.34C13.9019 13.211 13.7155 13.1979 13.6071 13.3128L12.8311 14.1359C12.1038 14.9072 10.8631 14.8599 10.1967 14.0353L8.45354 11.8783ZM6.60369 11.4679C7.05004 10.1661 8.75513 9.86511 9.62018 10.9355L11.3634 13.0925C11.4586 13.2103 11.6358 13.217 11.7397 13.1068L12.5157 12.2838C13.2742 11.4793 14.5794 11.5712 15.2178 12.4739L16.9968 14.9896C17.8164 16.1487 16.9875 17.75 15.5679 17.75H6.89983C5.69906 17.75 4.85499 16.5683 5.24443 15.4324L6.60369 11.4679Z" fill="#F98125"/>
<path d="M16.5 10C16.5 10.5523 16.0523 11 15.5 11C14.9477 11 14.5 10.5523 14.5 10C14.5 9.44772 14.9477 9 15.5 9C16.0523 9 16.5 9.44772 16.5 10Z" fill="#F98125"/>
<path fill-rule="evenodd" clip-rule="evenodd" d="M4.02223 4.56672C2.91862 4.7959 2.20753 5.87314 2.43033 6.97869L3.82083 13.8787C3.90266 14.2847 3.63983 14.6802 3.23378 14.7621C2.82773 14.8439 2.43222 14.581 2.3504 14.175L0.959887 7.27502C0.574239 5.36136 1.80528 3.4951 3.71723 3.09805L8.19379 2.16841C9.65687 1.86457 11.547 1.50786 13.0274 1.23485C14.7751 0.912537 16.5127 1.94357 16.9916 3.68652C17.1653 4.31859 17.3382 4.99334 17.4593 5.57645C17.5435 5.98201 17.283 6.37906 16.8774 6.46328C16.4719 6.5475 16.0748 6.28701 15.9906 5.88145C15.8789 5.34349 15.7155 4.70353 15.5453 4.08396C15.2806 3.12086 14.3115 2.52333 13.2994 2.70997C11.8208 2.98264 9.94451 3.33684 8.49879 3.63707L4.02223 4.56672Z" fill="#F98125"/>
</svg>
