<svg width="20" height="20" viewBox="0 0 20 20" fill="currentColor" xmlns="http://www.w3.org/2000/svg">
<path d="M15.0317 11.9599L14.4766 8.07461C14.2522 6.60034 12.936 5.40101 11.5426 5.40101H11.3507C12.2489 4.91623 12.8611 3.96404 12.8611 2.87091C12.8611 1.28788 11.5776 0 9.99999 0C8.42242 0 7.13891 1.28788 7.13891 2.87084C7.13891 3.96397 7.7511 4.91616 8.64935 5.40094H8.45757C7.0641 5.40094 5.74787 6.60034 5.52255 8.08047L4.96834 11.9599C4.93184 12.2154 5.05002 12.4684 5.26955 12.6043L6.74255 13.5169L7.4641 18.5751C7.57063 19.3744 8.25272 19.9999 9.01864 19.9999H10.9814C11.7473 19.9999 12.4294 19.3745 12.5361 18.5752L13.2574 13.5169L14.7306 12.6043C14.95 12.4684 15.0682 12.2154 15.0317 11.9599ZM9.99999 1.3C10.8608 1.3 11.5611 2.00471 11.5611 2.87084C11.5611 3.7371 10.8609 4.44182 9.99999 4.44182C9.13918 4.44182 8.43891 3.7371 8.43891 2.87084C8.43891 2.00471 9.13918 1.3 9.99999 1.3ZM12.3145 12.5717C12.1507 12.6731 12.0405 12.8419 12.0133 13.0325L11.2485 18.395C11.2482 18.3975 11.2479 18.4 11.2475 18.4025C11.2249 18.5751 11.0729 18.7 10.9813 18.7H9.01858C8.92713 18.7 8.77508 18.5751 8.75252 18.4025C8.75211 18.4 8.75178 18.3975 8.75144 18.395L7.98659 13.0325C7.95945 12.8419 7.84915 12.6731 7.68538 12.5717L6.31528 11.723L6.80854 8.27017C6.93804 7.41953 7.69319 6.70087 8.4575 6.70087H11.5425C12.3068 6.70087 13.0619 7.41953 13.1904 8.26424L13.6846 11.723L12.3145 12.5717Z" fill="currentColor"/>
</svg>
