<svg width="24" height="24" viewBox="0 0 24 24" fill="none" xmlns="http://www.w3.org/2000/svg">
<path fill-rule="evenodd" clip-rule="evenodd" d="M3.25058 8.8C3.25058 6.83939 4.84025 5.25 6.8012 5.25H17.203C19.164 5.25 20.7536 6.83939 20.7536 8.8V15.2C20.7536 17.1606 19.164 18.75 17.203 18.75H6.8012C4.84025 18.75 3.25058 17.1606 3.25058 15.2V8.8ZM6.8012 6.75C5.66882 6.75 4.75084 7.66782 4.75084 8.8V15.2C4.75084 16.3322 5.66882 17.25 6.8012 17.25H17.203C18.3354 17.25 19.2534 16.3322 19.2534 15.2V8.8C19.2534 7.66782 18.3354 6.75 17.203 6.75H6.8012Z" fill="#666666"/>
<path fill-rule="evenodd" clip-rule="evenodd" d="M7.40129 9.54998C7.64986 9.21861 8.12005 9.15145 8.45147 9.39998L11.8521 11.95C11.941 12.0166 12.0632 12.0166 12.1521 11.95L15.5527 9.39998C15.8841 9.15145 16.3543 9.21861 16.6029 9.54998C16.8515 9.88135 16.7843 10.3515 16.4529 10.6L13.0523 13.15C12.4299 13.6166 11.5742 13.6166 10.9519 13.15L7.55132 10.6C7.21989 10.3515 7.15272 9.88135 7.40129 9.54998Z" fill="#666666"/>
</svg>
