
<svg width="24" height="24" viewBox="0 0 24 24" fill="none" xmlns="http://www.w3.org/2000/svg">
<path fill-rule="evenodd" clip-rule="evenodd" d="M5.25092 5.8C5.25092 3.83939 6.84058 2.25 8.80154 2.25H15.2027C17.1636 2.25 18.7533 3.83939 18.7533 5.8V18.2C18.7533 20.1606 17.1636 21.75 15.2027 21.75H8.80154C6.84058 21.75 5.25092 20.1606 5.25092 18.2V5.8ZM8.80154 3.75C7.66915 3.75 6.75118 4.66782 6.75118 5.8V18.2C6.75118 19.3322 7.66915 20.25 8.80154 20.25H15.2027C16.335 20.25 17.253 19.3322 17.253 18.2V5.8C17.253 4.66782 16.335 3.75 15.2027 3.75H8.80154Z" fill="#666666"/>
<path d="M13.0023 18C13.0023 18.5523 12.5545 19 12.0021 19C11.4497 19 11.0019 18.5523 11.0019 18C11.0019 17.4477 11.4497 17 12.0021 17C12.5545 17 13.0023 17.4477 13.0023 18Z" fill="#666666"/>
<path fill-rule="evenodd" clip-rule="evenodd" d="M9.25162 6C9.25162 5.58579 9.58746 5.25 10.0017 5.25L14.0024 5.25C14.4167 5.25 14.7526 5.58579 14.7526 6C14.7526 6.41421 14.4167 6.75 14.0024 6.75L10.0017 6.75C9.58746 6.75 9.25162 6.41421 9.25162 6Z" fill="#666666"/>
</svg>
