<svg width="40" height="40" viewBox="0 0 40 40" fill="none" xmlns="http://www.w3.org/2000/svg">
<g filter="url(#filter0_b_3314_1767)">
<rect x="0.586182" y="0.680664" width="38.8277" height="38.8277" rx="12" fill="white" fill-opacity="0.7"/>
<rect x="1.08618" y="1.18066" width="37.8277" height="37.8277" rx="11.5" stroke="white" stroke-opacity="0.4"/>
<path d="M13.0355 23.6442H9.04158V21.0677H12.5593C12.9129 21.0677 13.1993 20.7813 13.1993 20.4278V19.2851C13.1993 18.9315 12.9129 18.6451 12.5593 18.6451H9.04158V16.5447H12.7974C13.1509 16.5447 13.4374 16.2583 13.4374 15.9048V14.7464C13.4374 14.3929 13.1509 14.1064 12.7974 14.1064H7.02083C6.66731 14.1064 6.38086 14.3929 6.38086 14.7464V25.4428C6.38086 25.7963 6.66731 26.0828 7.02083 26.0828H13.0355C13.389 26.0828 13.6754 25.7963 13.6754 25.4428V24.2845C13.6754 23.9307 13.389 23.6442 13.0355 23.6442Z" fill="#F98125"/>
<path d="M20.7392 18.7914C19.1408 18.1727 19.0213 17.8092 19.0213 17.3251C19.0213 16.8597 19.3827 16.3621 20.3972 16.3621C21.1711 16.3621 21.7626 16.5958 22.1221 16.7919C22.2879 16.8823 22.4856 16.8946 22.6614 16.826C22.8375 16.7571 22.974 16.614 23.0344 16.4348L23.4153 15.308C23.5133 15.0172 23.3912 14.6977 23.1242 14.5464C22.7241 14.3196 21.8443 13.9395 20.4443 13.9395C18.069 13.9395 16.3444 15.4301 16.3444 17.4838C16.3444 19.1539 17.4078 20.3427 19.5798 21.1125C21.0643 21.6833 21.1849 22.1428 21.1849 22.6417C21.1849 23.7112 20.068 23.8267 19.5875 23.8267C18.861 23.8267 18.0611 23.6011 17.4472 23.2233C17.2778 23.1191 17.0696 23.0994 16.8848 23.1701C16.6987 23.2405 16.5564 23.3935 16.4993 23.5835L16.1499 24.7421C16.069 25.0119 16.1734 25.3029 16.4079 25.4594C17.1055 25.9245 18.3739 26.2493 19.4923 26.2493C22.5216 26.2493 23.8776 24.3817 23.8776 22.5306C23.8773 20.2902 22.2001 19.3554 20.7392 18.7914Z" fill="#F98125"/>
<path d="M34.3517 23.8461C34.3036 23.6607 34.1746 23.5066 34.0002 23.4265C33.8264 23.3464 33.6255 23.3484 33.4529 23.4319C32.9776 23.6628 32.2027 23.812 31.479 23.812C29.2734 23.812 28.0084 22.4778 28.0084 20.1512C28.0084 17.7892 29.3295 16.3792 31.5425 16.3792C32.495 16.3792 33.1286 16.6175 33.4217 16.7594C33.5904 16.8413 33.7872 16.8449 33.9595 16.7688C34.1315 16.6931 34.2613 16.5451 34.3148 16.3649L34.6481 15.238C34.7349 14.9447 34.6015 14.6306 34.3305 14.489C34.0141 14.3242 33.1048 13.9404 31.4951 13.9404C27.8294 13.9404 25.269 16.5139 25.269 20.1985C25.269 23.8748 27.5947 26.2503 31.1938 26.2503C32.421 26.2503 33.5843 26.0353 34.3049 25.6748C34.5754 25.5397 34.7144 25.2335 34.6379 24.9407L34.3517 23.8461Z" fill="#F98125"/>
</g>
<defs>
<filter id="filter0_b_3314_1767" x="-7.924" y="-7.82951" width="55.848" height="55.8485" filterUnits="userSpaceOnUse" color-interpolation-filters="sRGB">
<feFlood flood-opacity="0" result="BackgroundImageFix"/>
<feGaussianBlur in="BackgroundImageFix" stdDeviation="4.25509"/>
<feComposite in2="SourceAlpha" operator="in" result="effect1_backgroundBlur_3314_1767"/>
<feBlend mode="normal" in="SourceGraphic" in2="effect1_backgroundBlur_3314_1767" result="shape"/>
</filter>
</defs>
</svg>
