<svg width="125" height="83" viewBox="0 0 125 83" fill="none" xmlns="http://www.w3.org/2000/svg">
<g filter="url(#filter0_b_3314_1709)">
<rect x="43.0859" width="38.8277" height="38.8277" rx="12" fill="white" fill-opacity="0.7"/>
<rect x="43.5859" y="0.5" width="37.8277" height="37.8277" rx="11.5" stroke="white" stroke-opacity="0.4"/>
<path d="M68.3049 13.2887C68.2653 13.3824 68.1735 13.4434 68.0717 13.4434L56.9298 13.4432C56.828 13.4432 56.7361 13.3823 56.6964 13.2886C56.6569 13.1948 56.6773 13.0864 56.7483 13.0134L62.3192 7.28361C62.3668 7.23465 62.4323 7.20695 62.5007 7.20695C62.5691 7.20695 62.6346 7.23465 62.6822 7.28361L68.2532 13.0136C68.3241 13.0866 68.3444 13.195 68.3049 13.2887Z" fill="#F98125"/>
<path d="M70.8448 18.4441C70.7013 18.2545 70.4775 18.1432 70.2399 18.1432H68.5661C68.2212 18.1432 67.9197 18.3758 67.8323 18.7095L66.1567 25.1112L66.0972 25.3497C66.0347 25.5993 65.9728 25.8465 65.9119 26.0916C65.84 25.778 65.7666 25.4652 65.6929 25.1558L64.1507 18.7244C64.0688 18.3834 63.7642 18.1429 63.4132 18.1429H61.7018C61.3575 18.1429 61.0566 18.3746 60.9686 18.7071L59.276 25.1012C59.1786 25.4698 59.0803 25.8411 58.9845 26.2112C58.9035 25.8553 58.8201 25.4971 58.7354 25.1407L57.2308 18.7277C57.1505 18.3849 56.8447 18.1426 56.4925 18.1426H54.7623C54.5284 18.1426 54.3075 18.2506 54.1638 18.4353C54.02 18.62 53.9696 18.8606 54.0273 19.0875L57.243 31.7626C57.3282 32.0987 57.631 32.3344 57.9783 32.3344H59.6897C60.0316 32.3344 60.331 32.1057 60.4211 31.7759L62.2238 25.1846C62.2966 24.9314 62.3655 24.6853 62.431 24.446C62.4856 24.6772 62.5421 24.9125 62.6012 25.1537L64.1998 31.7547C64.282 32.0948 64.5869 32.3344 64.9369 32.3344H66.6484C66.9875 32.3344 67.2857 32.1093 67.3779 31.7829L70.9701 19.1078C71.0344 18.8794 70.9883 18.6337 70.8448 18.4441Z" fill="#F98125"/>
</g>
<g filter="url(#filter1_b_3314_1709)">
<rect x="43.0859" y="43.6816" width="38.8277" height="38.8277" rx="12" fill="white" fill-opacity="0.7"/>
<rect x="43.5859" y="44.1816" width="37.8277" height="37.8277" rx="11.5" stroke="white" stroke-opacity="0.4"/>
<path d="M63.3764 55.7271C61.4823 54.9939 61.3407 54.5631 61.3407 53.9895C61.3407 53.4381 61.769 52.8484 62.9711 52.8484C63.8881 52.8484 64.5892 53.1253 65.0151 53.3577C65.2116 53.4648 65.4458 53.4793 65.6542 53.398C65.8629 53.3164 66.0246 53.1468 66.0962 52.9345L66.5475 51.5992C66.6637 51.2546 66.519 50.876 66.2026 50.6968C65.7285 50.428 64.6859 49.9775 63.027 49.9775C60.2123 49.9775 58.1686 51.7439 58.1686 54.1776C58.1686 56.1566 59.4287 57.5653 62.0026 58.4775C63.7616 59.1539 63.9045 59.6984 63.9045 60.2896C63.9045 61.557 62.581 61.6938 62.0117 61.6938C61.1508 61.6938 60.2028 61.4265 59.4754 60.9788C59.2746 60.8554 59.028 60.832 58.809 60.9157C58.5885 60.9991 58.4198 61.1805 58.3522 61.4056L57.9381 62.7785C57.8422 63.0983 57.966 63.4432 58.2439 63.6285C59.0705 64.1797 60.5735 64.5646 61.8988 64.5646C65.4886 64.5646 67.0954 62.3514 67.0954 60.158C67.0951 57.5031 65.1076 56.3953 63.3764 55.7271Z" fill="#F98125"/>
<path d="M56.6964 69.223C56.7359 69.1293 56.8277 69.0684 56.9296 69.0684L68.0715 69.0685C68.1732 69.0685 68.2651 69.1294 68.3048 69.2232C68.3443 69.3169 68.3239 69.4253 68.253 69.4983L62.682 75.2281C62.6344 75.2771 62.5689 75.3048 62.5005 75.3048C62.4321 75.3048 62.3666 75.2771 62.319 75.2281L56.7481 69.4981C56.6771 69.4251 56.6568 69.3168 56.6964 69.223Z" fill="#F98125"/>
</g>
<g filter="url(#filter2_b_3314_1709)">
<rect x="0.375488" y="43.6816" width="38.8277" height="38.8277" rx="12" fill="white" fill-opacity="0.7"/>
<rect x="0.875488" y="44.1816" width="37.8277" height="37.8277" rx="11.5" stroke="white" stroke-opacity="0.4"/>
<path d="M13.6627 68.9008C13.7564 68.8612 13.8174 68.7695 13.8174 68.6676L13.8173 57.5257C13.8173 57.4239 13.7563 57.3321 13.6626 57.2924C13.5689 57.2528 13.4604 57.2732 13.3875 57.3442L7.65764 62.9151C7.60867 62.9628 7.58098 63.0283 7.58098 63.0967C7.58098 63.165 7.60867 63.2306 7.65764 63.2782L13.3876 68.8491C13.4607 68.9201 13.569 68.9404 13.6627 68.9008Z" fill="#F98125"/>
<path d="M31.602 69.102L27.3064 56.5142C27.2014 56.2069 26.9129 56.001 26.5887 56.001H24.6139C24.289 56.001 24.0006 56.2079 23.8959 56.5151L19.5894 69.1906C19.5108 69.422 19.5484 69.6771 19.691 69.8761C19.8333 70.0748 20.0629 70.1928 20.3074 70.1928H22C22.3273 70.1928 22.6176 69.9832 22.7201 69.6723L23.8647 66.206H27.2678L28.4469 69.678C28.5513 69.9859 28.8401 70.1925 29.1649 70.1925H30.914H30.9201C31.339 70.1925 31.6784 69.8531 31.6784 69.4341C31.6784 69.3152 31.6508 69.2024 31.602 69.102ZM24.7122 63.4104L25.5606 60.9033L26.4136 63.4104H24.7122Z" fill="#F98125"/>
</g>
<g filter="url(#filter3_b_3314_1709)">
<rect x="85.7964" y="43.6816" width="38.8277" height="38.8277" rx="12" fill="white" fill-opacity="0.7"/>
<rect x="86.2964" y="44.1816" width="37.8277" height="37.8277" rx="11.5" stroke="white" stroke-opacity="0.4"/>
<path d="M103.317 57.6798C102.029 56.4798 100.181 55.8965 97.6656 55.8965C96.4768 55.8965 95.2683 55.9881 94.0734 56.1683C93.7021 56.2244 93.4282 56.5432 93.4282 56.9181V69.3867C93.4282 69.7722 93.7176 70.0965 94.101 70.1402C95.0074 70.2433 96.0364 70.2955 97.1578 70.2955C99.8363 70.2955 101.96 69.5878 103.294 68.2534C104.635 66.9329 105.345 65.0425 105.345 62.7857C105.345 60.631 104.661 58.9117 103.317 57.6798ZM97.4775 67.462C97.2154 67.462 96.8884 67.4592 96.5812 67.4432V58.7688C96.8775 58.7364 97.2625 58.7106 97.7408 58.7106C99.2278 58.7106 100.355 59.0858 101.091 59.8263C101.78 60.5197 102.125 61.5326 102.117 62.8418C102.117 65.8643 100.512 67.462 97.4775 67.462Z" fill="#F98125"/>
<path d="M111.336 68.9008C111.243 68.8612 111.182 68.7695 111.182 68.6676L111.182 57.5257C111.182 57.4239 111.243 57.3321 111.336 57.2924C111.43 57.2528 111.539 57.2732 111.612 57.3442L117.341 62.9151C117.39 62.9628 117.418 63.0283 117.418 63.0967C117.418 63.165 117.39 63.2306 117.341 63.2782L111.611 68.8491C111.538 68.9201 111.43 68.9404 111.336 68.9008Z" fill="#F98125"/>
</g>
<defs>
<filter id="filter0_b_3314_1709" x="34.5758" y="-8.51018" width="55.848" height="55.8485" filterUnits="userSpaceOnUse" color-interpolation-filters="sRGB">
<feFlood flood-opacity="0" result="BackgroundImageFix"/>
<feGaussianBlur in="BackgroundImageFix" stdDeviation="4.25509"/>
<feComposite in2="SourceAlpha" operator="in" result="effect1_backgroundBlur_3314_1709"/>
<feBlend mode="normal" in="SourceGraphic" in2="effect1_backgroundBlur_3314_1709" result="shape"/>
</filter>
<filter id="filter1_b_3314_1709" x="34.5758" y="35.1715" width="55.848" height="55.8485" filterUnits="userSpaceOnUse" color-interpolation-filters="sRGB">
<feFlood flood-opacity="0" result="BackgroundImageFix"/>
<feGaussianBlur in="BackgroundImageFix" stdDeviation="4.25509"/>
<feComposite in2="SourceAlpha" operator="in" result="effect1_backgroundBlur_3314_1709"/>
<feBlend mode="normal" in="SourceGraphic" in2="effect1_backgroundBlur_3314_1709" result="shape"/>
</filter>
<filter id="filter2_b_3314_1709" x="-8.13469" y="35.1715" width="55.848" height="55.8485" filterUnits="userSpaceOnUse" color-interpolation-filters="sRGB">
<feFlood flood-opacity="0" result="BackgroundImageFix"/>
<feGaussianBlur in="BackgroundImageFix" stdDeviation="4.25509"/>
<feComposite in2="SourceAlpha" operator="in" result="effect1_backgroundBlur_3314_1709"/>
<feBlend mode="normal" in="SourceGraphic" in2="effect1_backgroundBlur_3314_1709" result="shape"/>
</filter>
<filter id="filter3_b_3314_1709" x="77.2862" y="35.1715" width="55.848" height="55.8485" filterUnits="userSpaceOnUse" color-interpolation-filters="sRGB">
<feFlood flood-opacity="0" result="BackgroundImageFix"/>
<feGaussianBlur in="BackgroundImageFix" stdDeviation="4.25509"/>
<feComposite in2="SourceAlpha" operator="in" result="effect1_backgroundBlur_3314_1709"/>
<feBlend mode="normal" in="SourceGraphic" in2="effect1_backgroundBlur_3314_1709" result="shape"/>
</filter>
</defs>
</svg>
