<svg width="123" height="71" viewBox="0 0 123 71" fill="none" xmlns="http://www.w3.org/2000/svg">
<g filter="url(#filter0_b_3314_1744)">
<rect x="0.5" y="0.508789" width="122" height="70" rx="12" fill="white" fill-opacity="0.7"/>
<rect x="1" y="1.00879" width="121" height="69" rx="11.5" stroke="white" stroke-opacity="0.4"/>
<g clip-path="url(#clip0_3314_1744)">
<path d="M95.3455 13.5498C87.0146 13.559 80.2634 20.3102 80.2542 28.6412V46.1154C80.2542 54.4501 87.0108 61.2068 95.3455 61.2068C103.68 61.2068 110.437 54.4501 110.437 46.1154V28.6412C110.428 20.3102 103.676 13.559 95.3455 13.5498ZM96.9341 21.4926V26.2583C96.9341 27.1357 96.2229 27.8469 95.3455 27.8469C94.4681 27.8469 93.757 27.1357 93.757 26.2583V21.4926C93.757 20.6153 94.4681 19.9041 95.3455 19.9041C96.2229 19.9041 96.9341 20.6153 96.9341 21.4926ZM81.8427 28.6412C81.8545 21.5 87.4226 15.6017 94.5512 15.1789V18.4283C93.1528 18.7894 92.1739 20.0483 92.1684 21.4926V26.2583C92.1739 27.7026 93.1528 28.9616 94.5512 29.3227V32.6126H81.8427V28.6412ZM108.848 46.1154C108.84 53.5694 102.799 59.6099 95.3455 59.6182C87.8916 59.6099 81.8511 53.5694 81.8427 46.1154V34.2012H108.848V46.1154ZM108.848 32.6126H96.1398V29.3227C97.5383 28.9616 98.5172 27.7026 98.5227 26.2583V21.4926C98.5172 20.0483 97.5383 18.7894 96.1398 18.4283V15.1789C103.269 15.6017 108.837 21.5 108.848 28.6412V32.6126Z" fill="#7E7E7E"/>
</g>
<path d="M95.3454 8.44434L100.451 16.9545H90.2393L95.3454 8.44434Z" fill="#F98125"/>
<path d="M95.3454 38.2295L100.451 30.5703H90.2393L95.3454 38.2295Z" fill="#F98125"/>
<path d="M39.178 19.082V14.8269L38.7525 14.4014L34.4974 15.2524L31.9443 16.5289C30.8097 17.3799 28.5403 19.1671 28.5403 19.5075C28.5403 19.8479 27.4056 21.3513 26.8382 22.0605L24.7107 26.3156V33.1238L25.5617 33.5493L39.178 33.1238V29.7197L38.327 28.4432L36.6249 26.7411V24.1881L37.476 20.3585L39.178 19.082Z" fill="#F98125"/>
<g clip-path="url(#clip1_3314_1744)">
<path d="M39.1781 13.5508C30.8471 13.56 24.0959 20.3112 24.0867 28.6422V46.1164C24.0867 54.4511 30.8433 61.2078 39.1781 61.2078C47.5128 61.2078 54.2694 54.4511 54.2694 46.1164V28.6422C54.2602 20.3112 47.509 13.56 39.1781 13.5508ZM40.7666 21.4936V26.2593C40.7666 27.1367 40.0554 27.8479 39.1781 27.8479C38.3007 27.8479 37.5895 27.1367 37.5895 26.2593V21.4936C37.5895 20.6162 38.3007 19.905 39.1781 19.905C40.0554 19.905 40.7666 20.6162 40.7666 21.4936ZM25.6752 28.6422C25.6871 21.501 31.2551 15.6027 38.3838 15.1799V18.4293C36.9853 18.7904 36.0064 20.0493 36.0009 21.4936V26.2593C36.0064 27.7036 36.9853 28.9626 38.3838 29.3237V32.6136H25.6752V28.6422ZM52.6809 46.1164C52.6725 53.5703 46.632 59.6109 39.1781 59.6192C31.7241 59.6109 25.6836 53.5703 25.6752 46.1164V34.2021H52.6809V46.1164ZM52.6809 32.6136H39.9723V29.3237C41.3709 28.9626 42.3497 27.7036 42.3552 26.2593V21.4936C42.3497 20.0493 41.3709 18.7904 39.9723 18.4293V15.1799C47.101 15.6027 52.669 21.501 52.6809 28.6422V32.6136Z" fill="#7E7E7E"/>
</g>
<path d="M68.8695 37.0779L65.0096 33.218C64.9492 33.1606 64.8736 33.122 64.7918 33.1068C64.71 33.0916 64.6255 33.1005 64.5486 33.1323C64.4717 33.1642 64.4057 33.2176 64.3586 33.2862C64.3115 33.3548 64.2853 33.4356 64.2832 33.5188V35.2512H57.4751C57.3622 35.2512 57.254 35.296 57.1742 35.3758C57.0944 35.4556 57.0496 35.5638 57.0496 35.6767V39.0808C57.0496 39.1936 57.0944 39.3018 57.1742 39.3816C57.254 39.4614 57.3622 39.5063 57.4751 39.5063H64.2832V41.2386C64.3345 41.516 64.4763 41.6578 64.7087 41.6641C64.7646 41.6642 64.8199 41.6532 64.8715 41.6318C64.9232 41.6104 64.9701 41.579 65.0096 41.5395L68.8695 37.6796C68.9492 37.5998 68.9941 37.4916 68.9941 37.3787C68.9941 37.2659 68.9492 37.1577 68.8695 37.0779Z" fill="#F98125"/>
<path d="M8.63566 37.0779L12.4956 33.218C12.5559 33.1606 12.6315 33.122 12.7134 33.1068C12.7952 33.0916 12.8796 33.1005 12.9565 33.1323C13.0334 33.1642 13.0994 33.2176 13.1465 33.2862C13.1936 33.3548 13.2198 33.4356 13.2219 33.5188V35.2512H20.0301C20.1429 35.2512 20.2511 35.296 20.3309 35.3758C20.4107 35.4556 20.4556 35.5638 20.4556 35.6767V39.0808C20.4556 39.1936 20.4107 39.3018 20.3309 39.3816C20.2511 39.4614 20.1429 39.5063 20.0301 39.5063H13.2219V41.2386C13.1706 41.516 13.0288 41.6578 12.7964 41.6641C12.7405 41.6642 12.6852 41.6532 12.6336 41.6318C12.582 41.6104 12.5351 41.579 12.4956 41.5395L8.63566 37.6796C8.55589 37.5998 8.51107 37.4916 8.51107 37.3787C8.51107 37.2659 8.55589 37.1577 8.63566 37.0779Z" fill="#F98125"/>
</g>
<defs>
<filter id="filter0_b_3314_1744" x="-8.01018" y="-8.00139" width="139.02" height="87.0204" filterUnits="userSpaceOnUse" color-interpolation-filters="sRGB">
<feFlood flood-opacity="0" result="BackgroundImageFix"/>
<feGaussianBlur in="BackgroundImageFix" stdDeviation="4.25509"/>
<feComposite in2="SourceAlpha" operator="in" result="effect1_backgroundBlur_3314_1744"/>
<feBlend mode="normal" in="SourceGraphic" in2="effect1_backgroundBlur_3314_1744" result="shape"/>
</filter>
<clipPath id="clip0_3314_1744">
<rect width="47.657" height="47.657" fill="white" transform="translate(71.5171 13.5498)"/>
</clipPath>
<clipPath id="clip1_3314_1744">
<rect width="47.657" height="47.657" fill="white" transform="translate(15.3496 13.5508)"/>
</clipPath>
</defs>
</svg>
