<svg width="24" height="24" viewBox="0 0 24 24" fill="none" xmlns="http://www.w3.org/2000/svg">
<path fill-rule="evenodd" clip-rule="evenodd" d="M9.22362 3.77601C9.55907 2.64942 10.5429 1.5 12.0001 1.5C13.4577 1.5 14.4406 2.64947 14.7786 3.77394C14.7803 3.77603 14.7825 3.77868 14.7854 3.78172C14.7924 3.78895 14.8002 3.79559 14.8076 3.80075C14.8133 3.80467 14.8167 3.80636 14.8171 3.80656C15.6654 4.15582 16.6638 4.71371 17.4447 5.73514C18.2319 6.76478 18.744 8.19413 18.744 10.1883C18.744 12.1765 18.9538 13.2668 19.2627 14.0153C19.5335 14.6716 19.8897 15.103 20.3965 15.7168C20.4705 15.8065 20.5478 15.9 20.6284 15.9987L20.6286 15.999C21.5626 17.1431 20.6806 18.75 19.2418 18.75H15.7501C15.7501 19.7446 15.355 20.6984 14.6518 21.4016C13.9485 22.1049 12.9947 22.5 12.0001 22.5C11.0056 22.5 10.0517 22.1049 9.34846 21.4016C8.6452 20.6984 8.25012 19.7446 8.25012 18.75H4.76308C3.32692 18.75 2.43004 17.1513 3.37183 15.9987C3.45254 15.9 3.52983 15.8063 3.6039 15.7166C4.11062 15.1029 4.46683 14.6714 4.73792 14.0151C5.0471 13.2666 5.25738 12.1763 5.25855 10.1883M9.75012 18.75C9.75012 19.3467 9.98717 19.919 10.4091 20.341C10.8311 20.7629 11.4034 21 12.0001 21C12.5969 21 13.1691 20.7629 13.5911 20.341C14.0131 19.919 14.2501 19.3467 14.2501 18.75H9.75012ZM4.76308 17.25C4.60894 17.25 4.53954 17.1791 4.51167 17.1245C4.49561 17.093 4.4908 17.0625 4.49311 17.0369C4.49516 17.0144 4.50351 16.9844 4.53336 16.9479L4.5334 16.9478C4.60584 16.8592 4.67882 16.7712 4.75188 16.6832C5.25462 16.0772 5.76133 15.4666 6.12431 14.5878C6.54154 13.5776 6.75736 12.2622 6.75855 10.1887V10.1883C6.75855 8.46069 7.19586 7.36809 7.74869 6.64523C8.30771 5.91428 9.04016 5.48863 9.75662 5.19357L9.75679 5.1935C10.1387 5.03643 10.5197 4.68648 10.6573 4.21761L10.6578 4.21574C10.8712 3.48152 11.4227 3 12.0001 3C12.5776 3 13.1292 3.48116 13.3454 4.2169L13.3459 4.2188C13.4827 4.67986 13.8597 5.03471 14.2458 5.19353C14.9608 5.48786 15.6936 5.91434 16.2531 6.64619C16.8064 7.3699 17.244 8.4629 17.244 10.1883C17.244 12.2617 17.4592 13.5773 17.8761 14.5876C18.2389 15.4665 18.7457 16.0773 19.2485 16.6833C19.3215 16.7713 19.3944 16.8592 19.4668 16.9478C19.5138 17.0055 19.5176 17.0652 19.4871 17.1254C19.4587 17.1814 19.3904 17.25 19.2418 17.25H4.76308ZM9.22362 3.77601C9.22232 3.77755 9.2207 3.77936 9.21872 3.78141C9.21234 3.78803 9.20479 3.79442 9.19726 3.79961C9.19028 3.80443 9.18608 3.80631 9.18608 3.80631L9.18563 3.8065C8.33698 4.15597 7.33818 4.71281 6.5572 5.73399C5.77005 6.76324 5.25863 8.19238 5.25855 10.1878" fill="#6A8C21"/>
</svg>
