<svg width="24" height="24" viewBox="0 0 24 24" fill="none" xmlns="http://www.w3.org/2000/svg">
<path fill-rule="evenodd" clip-rule="evenodd" d="M4.25 6.8C4.25 4.83939 5.83939 3.25 7.8 3.25H16.2C18.1606 3.25 19.75 4.83939 19.75 6.8V17.2C19.75 19.1606 18.1606 20.75 16.2 20.75H7.8C5.83939 20.75 4.25 19.1606 4.25 17.2V6.8ZM7.8 4.75C6.66782 4.75 5.75 5.66782 5.75 6.8V17.2C5.75 18.3322 6.66782 19.25 7.8 19.25H16.2C17.3322 19.25 18.25 18.3322 18.25 17.2V6.8C18.25 5.66782 17.3322 4.75 16.2 4.75H7.8Z" fill="currentColor"/>
<path fill-rule="evenodd" clip-rule="evenodd" d="M13.2501 16.0302C13.2555 15.616 13.5956 15.2846 14.0098 15.29L16.1169 15.3175C16.5311 15.3229 16.8625 15.663 16.8571 16.0772C16.8517 16.4913 16.5116 16.8227 16.0974 16.8173L13.9902 16.7899C13.5761 16.7845 13.2447 16.4444 13.2501 16.0302Z" fill="currentColor"/>
<path fill-rule="evenodd" clip-rule="evenodd" d="M7.25 16C7.25 15.5858 7.58579 15.25 8 15.25H10.1073C10.5216 15.25 10.8573 15.5858 10.8573 16C10.8573 16.4142 10.5216 16.75 10.1073 16.75H8C7.58579 16.75 7.25 16.4142 7.25 16Z" fill="currentColor"/>
<path fill-rule="evenodd" clip-rule="evenodd" d="M15.077 14.25C15.4912 14.2554 15.8226 14.5955 15.8172 15.0097L15.7898 17.1169C15.7844 17.531 15.4443 17.8624 15.0301 17.857C14.6159 17.8517 14.2845 17.5115 14.2899 17.0973L14.3173 14.9902C14.3227 14.576 14.6629 14.2446 15.077 14.25Z" fill="currentColor"/>
<path fill-rule="evenodd" clip-rule="evenodd" d="M7.25 8.2C7.25 7.12304 8.12304 6.25 9.2 6.25H14.8C15.877 6.25 16.75 7.12304 16.75 8.2V9.8C16.75 10.877 15.877 11.75 14.8 11.75H9.2C8.12304 11.75 7.25 10.877 7.25 9.8V8.2ZM9.2 7.75C8.95147 7.75 8.75 7.95147 8.75 8.2V9.8C8.75 10.0485 8.95147 10.25 9.2 10.25H14.8C15.0485 10.25 15.25 10.0485 15.25 9.8V8.2C15.25 7.95147 15.0485 7.75 14.8 7.75H9.2Z" fill="currentColor"/>
</svg>
