<svg width="24" height="24" viewBox="0 0 24 24" fill="none" xmlns="http://www.w3.org/2000/svg">
<path d="M21.4141 16.1016H21.3359V15.3594C21.3359 14.3901 20.5474 13.6016 19.5781 13.6016C18.1379 13.6016 16.7148 13.3706 15.3484 12.9152C14.9385 12.7785 14.647 12.6641 14.151 12.6641C13.279 12.6641 12.5016 13.0745 12 13.7117C11.4985 13.0745 10.7211 12.6641 9.8491 12.6641C9.35465 12.6641 9.06242 12.7782 8.6516 12.9152C7.2852 13.3706 5.86215 13.6016 4.42188 13.6016C3.45262 13.6016 2.66406 14.3901 2.66406 15.3594V16.1016H2.58594C2.26234 16.1016 2 16.3639 2 16.6875V19.1875C2 19.5111 2.26234 19.7734 2.58594 19.7734H9.96172C10.2075 20.6867 11.0436 21.3359 12 21.3359C12.9564 21.3359 13.7926 20.6866 14.0382 19.7734H21.4141C21.7377 19.7734 22 19.5111 22 19.1875V16.6875C22 16.3639 21.7377 16.1016 21.4141 16.1016ZM14.1509 13.8359C14.4614 13.8359 14.6487 13.9172 14.9779 14.0269C16.4639 14.5223 18.0117 14.7734 19.5781 14.7734C19.9012 14.7734 20.1641 15.0363 20.1641 15.3594V16.1016H14.2633C13.6717 16.1016 13.1011 16.237 12.5859 16.492V15.401C12.5859 14.538 13.288 13.8359 14.1509 13.8359ZM3.83594 15.3594C3.83594 15.0363 4.09879 14.7734 4.42188 14.7734C5.98832 14.7734 7.53605 14.5223 9.02215 14.0269C9.3477 13.9184 9.5393 13.8359 9.84906 13.8359C10.712 13.8359 11.4141 14.538 11.4141 15.4009V16.492C10.8989 16.237 10.3283 16.1015 9.73668 16.1015H3.83594V15.3594ZM20.8281 18.6016H13.9059C13.4286 18.6016 13.0142 18.9413 12.9205 19.4094C12.8331 19.8467 12.446 20.1641 12 20.1641C11.554 20.1641 11.1669 19.8467 11.0794 19.4094C10.9858 18.9413 10.5714 18.6016 10.0941 18.6016H3.17188V17.2734H9.73668C10.4351 17.2734 11.0918 17.5454 11.5857 18.0393C11.8145 18.2681 12.1855 18.2681 12.4143 18.0393C12.9082 17.5454 13.5648 17.2734 14.2633 17.2734H20.8281V18.6016Z" fill="currentColor"/>
<path d="M7.9375 9.77344H8.60156V10.4375C8.60156 10.7611 8.86391 11.0234 9.1875 11.0234C9.51109 11.0234 9.77344 10.7611 9.77344 10.4375V9.77344H10.4375C10.7611 9.77344 11.0234 9.51109 11.0234 9.1875C11.0234 8.86391 10.7611 8.60156 10.4375 8.60156H9.77344V7.9375C9.77344 7.61391 9.51109 7.35156 9.1875 7.35156C8.86391 7.35156 8.60156 7.61391 8.60156 7.9375V8.60156H7.9375C7.61391 8.60156 7.35156 8.86391 7.35156 9.1875C7.35156 9.51109 7.61391 9.77344 7.9375 9.77344Z" fill="currentColor"/>
<path d="M14.7107 10.8519C14.9395 11.0807 15.3105 11.0807 15.5394 10.8519L16.2188 10.1724L16.8982 10.8519C17.127 11.0807 17.498 11.0807 17.7269 10.8519C17.9557 10.623 17.9557 10.2521 17.7269 10.0232L17.0474 9.34377L17.7269 8.66432C17.9557 8.43549 17.9557 8.06451 17.7269 7.83568C17.4981 7.60686 17.1271 7.60686 16.8982 7.83568L16.2188 8.51514L15.5393 7.83568C15.3105 7.60686 14.9395 7.60686 14.7107 7.83568C14.4819 8.06451 14.4819 8.43549 14.7107 8.66432L15.3901 9.34377L14.7107 10.0232C14.4819 10.2521 14.4819 10.623 14.7107 10.8519Z" fill="currentColor"/>
<path d="M5.57502 7.63757C5.75506 7.90765 6.11908 7.97905 6.38756 7.80011C6.65682 7.62058 6.72959 7.25679 6.5501 6.98757L5.3001 5.11257C5.12057 4.84327 4.75678 4.77054 4.48756 4.95003C4.2183 5.12956 4.14553 5.49335 4.32502 5.76257L5.57502 7.63757Z" fill="currentColor"/>
<path d="M10.3357 5.53932C10.5645 5.76814 10.9355 5.76818 11.1643 5.53932L13.7034 3.00025C13.9322 2.77143 13.9322 2.40045 13.7034 2.17162C13.4746 1.94279 13.1036 1.94279 12.8747 2.17162L10.3357 4.71068C10.1069 4.93951 10.1069 5.31049 10.3357 5.53932Z" fill="currentColor"/>
<path d="M10.4382 3.17188C10.7618 3.17188 11.0242 2.90953 11.0242 2.58594C11.0242 2.26234 10.7618 2 10.4382 2C10.1109 2 9.85211 2.26551 9.85211 2.58594C9.85211 2.90953 10.1147 3.17188 10.4382 3.17188Z" fill="currentColor"/>
<path d="M13.5629 4.85156C13.2393 4.85156 12.9771 5.11391 12.9771 5.4375C12.9771 5.76109 13.2396 6.02344 13.5632 6.02344C13.8869 6.02344 14.1492 5.76109 14.1492 5.4375C14.1492 5.11656 13.8896 4.85156 13.5629 4.85156Z" fill="currentColor"/>
<path d="M4.18545 11.8525L4.23795 12.1149C4.29365 12.3935 4.53826 12.586 4.81186 12.586C5.18342 12.586 5.45932 12.2464 5.38705 11.8851L5.33455 11.6226C5.1417 10.6583 4.67217 9.78104 3.97682 9.08568C3.74803 8.85686 3.37701 8.85686 3.14818 9.08568C2.91936 9.31451 2.91936 9.68549 3.14818 9.91432C3.67939 10.4456 4.03807 11.1158 4.18545 11.8525Z" fill="currentColor"/>
<path d="M18.6129 11.8851C18.5406 12.2465 18.8167 12.5861 19.1881 12.5861C19.4617 12.5861 19.7063 12.3935 19.762 12.1149L19.8145 11.8525C19.9618 11.1158 20.3205 10.4456 20.8518 9.91432C21.0806 9.68549 21.0806 9.31451 20.8518 9.08568C20.623 8.85686 20.252 8.85686 20.0231 9.08568C19.3277 9.78107 18.8583 10.6583 18.6654 11.6226L18.6129 11.8851Z" fill="currentColor"/>
<path d="M18.0393 6.16432L18.6643 5.53932C18.8931 5.31049 18.8931 4.93951 18.6643 4.71068C18.4355 4.48186 18.0645 4.48186 17.8357 4.71068L17.2107 5.33568C16.9819 5.56451 16.9819 5.93549 17.2107 6.16432C17.4395 6.39311 17.8105 6.39314 18.0393 6.16432Z" fill="currentColor"/>
</svg>
