<svg width="24" height="24" viewBox="0 0 24 24" fill="none" xmlns="http://www.w3.org/2000/svg">
<path fill-rule="evenodd" clip-rule="evenodd" d="M13.6325 4.45793C12.7441 3.51402 11.244 3.51402 10.3556 4.45793L5.36155 9.7641C4.96873 10.1815 4.75 10.733 4.75 11.3062V17.2981C4.75 18.4862 5.67382 19.4696 6.85965 19.5437L12 19.865L17.1387 19.5438C18.325 19.4697 19.249 18.4855 19.2483 17.2969L19.2447 11.3119C19.2444 10.7392 19.0257 10.1882 18.6332 9.77116L13.6325 4.45793ZM9.26329 3.42988C10.7439 1.85671 13.2441 1.8567 14.7248 3.42988L19.7255 8.74311C20.3797 9.43816 20.7442 10.3565 20.7447 11.311L20.7483 17.296C20.7495 19.2771 19.2095 20.9173 17.2322 21.0409L12 21.3679L6.76608 21.0408C4.7897 20.9173 3.25 19.2783 3.25 17.2981V11.3062C3.25 10.3509 3.61455 9.43167 4.26925 8.73605L9.26329 3.42988Z" fill="currentColor"/>
<path fill-rule="evenodd" clip-rule="evenodd" d="M12.1308 13.077C12.0506 13.0277 11.9494 13.0277 11.8692 13.077L11.4767 12.4379L11.8692 13.077L9.86918 14.3051C9.79513 14.3505 9.75 14.4312 9.75 14.5181V17.1166C9.75 17.5308 9.41421 17.8666 9 17.8666C8.58579 17.8666 8.25 17.5308 8.25 17.1166V14.5181C8.25 13.9098 8.5659 13.3451 9.08429 13.0268L11.0843 11.7987C11.646 11.4538 12.354 11.4538 12.9157 11.7987L14.9157 13.0268C15.4341 13.3451 15.75 13.9098 15.75 14.5181V17.1166C15.75 17.5308 15.4142 17.8666 15 17.8666C14.5858 17.8666 14.25 17.5308 14.25 17.1166V14.5181C14.25 14.4312 14.2049 14.3505 14.1308 14.3051L12.1308 13.077Z" fill="currentColor"/>
</svg>
