<svg width="24" height="24" viewBox="0 0 24 24" fill="none" xmlns="http://www.w3.org/2000/svg">
<path d="M23.5982 9.32143H16.7411C16.6232 9.32143 16.5268 9.41786 16.5268 9.53571V10.8214C16.5268 10.9393 16.6232 11.0357 16.7411 11.0357H23.5982C23.7161 11.0357 23.8125 10.9393 23.8125 10.8214V9.53571C23.8125 9.41786 23.7161 9.32143 23.5982 9.32143ZM20.0089 12.9643H16.7411C16.6232 12.9643 16.5268 13.0607 16.5268 13.1786V14.4643C16.5268 14.5821 16.6232 14.6786 16.7411 14.6786H20.0089C20.1268 14.6786 20.2232 14.5821 20.2232 14.4643V13.1786C20.2232 13.0607 20.1268 12.9643 20.0089 12.9643ZM11.0705 6.92411H9.91071C9.74464 6.92411 9.61071 7.05804 9.61071 7.22411V13.867C9.61071 13.9634 9.65625 14.0518 9.73393 14.108L13.7223 17.017C13.8562 17.1134 14.0438 17.0866 14.1402 16.9527L14.8286 16.0125V16.0098C14.925 15.8759 14.8955 15.6884 14.7616 15.592L11.3679 13.1384V7.22411C11.3705 7.05804 11.2339 6.92411 11.0705 6.92411Z" fill="currentColor" />
<path d="M19.8429 16.3366H18.2946C18.1446 16.3366 18.0027 16.4143 17.9223 16.5429C17.5816 17.0829 17.1818 17.5833 16.7304 18.0348C15.953 18.8147 15.0314 19.4361 14.017 19.8643C12.9643 20.3089 11.8473 20.5339 10.6955 20.5339C9.54107 20.5339 8.42411 20.3089 7.37411 19.8643C6.35893 19.4357 5.44554 18.8196 4.66071 18.0348C3.87589 17.25 3.25982 16.3366 2.83125 15.3214C2.38661 14.2714 2.16161 13.1545 2.16161 12C2.16161 10.8455 2.38661 9.73125 2.83125 8.67857C3.25982 7.66339 3.87589 6.75 4.66071 5.96518C5.44554 5.18036 6.35893 4.56429 7.37411 4.13571C8.42411 3.69107 9.54375 3.46607 10.6955 3.46607C11.85 3.46607 12.967 3.69107 14.017 4.13571C15.0321 4.56429 15.9455 5.18036 16.7304 5.96518C17.1818 6.4167 17.5816 6.91711 17.9223 7.45714C18.0027 7.58571 18.1446 7.66339 18.2946 7.66339H19.8429C20.0277 7.66339 20.1455 7.47054 20.0625 7.30714C18.3161 3.83304 14.775 1.575 10.8214 1.52946C5.03303 1.45714 0.224999 6.19554 0.214285 11.9786C0.203571 17.7723 4.89911 22.4732 10.6929 22.4732C14.6973 22.4732 18.2973 20.2071 20.0625 16.6929C20.0813 16.6554 20.0902 16.6137 20.0884 16.5718C20.0866 16.5299 20.0741 16.4892 20.0521 16.4535C20.0301 16.4177 19.9993 16.3883 19.9627 16.3678C19.926 16.3474 19.8848 16.3366 19.8429 16.3366Z" fill="currentColor"/>
</svg>
