<svg width="24" height="24" viewBox="0 0 24 24" fill="none" xmlns="http://www.w3.org/2000/svg">
<path fill-rule="evenodd" clip-rule="evenodd" d="M12 2.25C12.4142 2.25 12.75 2.58579 12.75 3L12.75 9C12.75 9.41421 12.4142 9.75 12 9.75C11.5858 9.75 11.25 9.41421 11.25 9L11.25 3C11.25 2.58579 11.5858 2.25 12 2.25Z" fill="currentColor"/>
<path fill-rule="evenodd" clip-rule="evenodd" d="M8.64952 5.69689C8.85663 6.05561 8.73373 6.51431 8.37501 6.72142C7.30514 7.33912 6.40381 8.2242 5.76544 9.29978C4.88775 10.7786 4.56428 12.5212 4.85278 14.2164C5.14127 15.9117 6.02296 17.4492 7.34039 18.5544C8.65781 19.6596 10.3252 20.2606 12.0448 20.25C13.7644 20.2394 15.4242 19.6178 16.7279 18.4964C18.0316 17.375 18.8942 15.8267 19.1617 14.128C19.4293 12.4294 19.0843 10.6909 18.1884 9.22304C17.5526 8.18124 16.6686 7.32392 15.625 6.72142C15.2663 6.5143 15.1434 6.05561 15.3505 5.69689C15.5576 5.33818 16.0163 5.21528 16.375 5.42239C17.6344 6.14951 18.7013 7.1842 19.4688 8.44158C20.55 10.2131 20.9664 12.3113 20.6435 14.3614C20.3206 16.4116 19.2795 18.2802 17.7061 19.6336C16.1327 20.987 14.1294 21.7371 12.0541 21.7499C9.97869 21.7628 7.96632 21.0375 6.37632 19.7036C4.78632 18.3697 3.72222 16.5141 3.37404 14.4681C3.02585 12.4221 3.41625 10.3189 4.47552 8.53419C5.24599 7.23605 6.33383 6.16786 7.62499 5.42239C7.98371 5.21528 8.4424 5.33818 8.64952 5.69689Z" fill="currentColor"/>
</svg>
