<svg width="32" height="32" viewBox="0 0 32 32" fill="none" xmlns="http://www.w3.org/2000/svg">
<path fill-rule="evenodd" clip-rule="evenodd" d="M5.66669 8C5.66669 7.44772 6.1144 7 6.66669 7L18.6667 7C19.219 7 19.6667 7.44772 19.6667 8C19.6667 8.55228 19.219 9 18.6667 9L6.66669 9C6.1144 9 5.66669 8.55228 5.66669 8Z" fill="currentColor"/>
<path fill-rule="evenodd" clip-rule="evenodd" d="M5.66669 24C5.66669 23.4477 6.1144 23 6.66669 23H14.6667C15.219 23 15.6667 23.4477 15.6667 24C15.6667 24.5523 15.219 25 14.6667 25H6.66669C6.1144 25 5.66669 24.5523 5.66669 24Z" fill="currentColor"/>
<path fill-rule="evenodd" clip-rule="evenodd" d="M5.66669 16C5.66669 15.4477 6.1144 15 6.66669 15L25.3334 15C25.8856 15 26.3334 15.4477 26.3334 16C26.3334 16.5523 25.8856 17 25.3334 17L6.66669 17C6.1144 17 5.66669 16.5523 5.66669 16Z" fill="currentColor"/>
</svg>
