<svg width="24" height="24" viewBox="0 0 24 24" fill="none" xmlns="http://www.w3.org/2000/svg">
<path fill-rule="evenodd" clip-rule="evenodd" d="M15 7.5C15 9.15685 13.6569 10.5 12 10.5C10.3431 10.5 9 9.15685 9 7.5C9 5.84315 10.3431 4.5 12 4.5C13.6569 4.5 15 5.84315 15 7.5ZM12 12C14.4853 12 16.5 9.98528 16.5 7.5C16.5 5.01472 14.4853 3 12 3C9.51472 3 7.5 5.01472 7.5 7.5C7.5 9.98528 9.51472 12 12 12ZM21 19.5C21 21 19.5 21 19.5 21H4.5C4.5 21 3 21 3 19.5C3 18 4.5 13.5 12 13.5C19.5 13.5 21 18 21 19.5ZM19.5 19.4948C19.4978 19.1246 19.2693 18.0157 18.2518 16.9982C17.2734 16.0198 15.4336 15 12 15C8.56632 15 6.72653 16.0198 5.74815 16.9982C4.73063 18.0157 4.50214 19.1246 4.5 19.4948H19.5Z" fill="currentColor"/>
</svg>
