<svg width="24" height="24" viewBox="0 0 24 24" fill="none" xmlns="http://www.w3.org/2000/svg">
<path d="M23 15.5352C23 14.6949 22.4611 13.9785 21.7109 13.7125V8.84178L22.6428 8.3778C22.8617 8.26879 23 8.04535 23 7.80082C23 7.55628 22.8616 7.33284 22.6428 7.22383L12.2873 2.06758C12.1063 1.97747 11.8936 1.97747 11.7127 2.06758L1.35724 7.22383C1.13836 7.33284 1 7.55632 1 7.80082C1 8.04531 1.13836 8.26879 1.35724 8.3778L5.301 10.3415L6.21778 14.0775C6.25332 14.2222 6.33784 14.3501 6.45703 14.4395C8.0687 15.6482 9.98541 16.2871 12 16.2871C14.0146 16.2871 15.9313 15.6482 17.543 14.4395C17.6622 14.3501 17.7467 14.2222 17.7822 14.0775L18.699 10.3415L20.4219 9.48365V13.7125C19.6717 13.9786 19.1328 14.695 19.1328 15.5352C19.1328 16.1464 19.4182 16.692 19.8623 17.0465C19.4879 17.479 19.1328 18.0702 19.1328 18.7579C19.1328 20.1297 20.546 21.1183 20.7071 21.2265C20.9244 21.3725 21.2085 21.3725 21.4258 21.2265C21.5869 21.1183 23 20.1297 23 18.7579C23 18.0702 22.6449 17.4789 22.2705 17.0465C22.7146 16.6919 23 16.1464 23 15.5352ZM16.5864 13.5415C13.8543 15.4701 10.1458 15.4701 7.41356 13.5415L6.81307 11.0944L11.7127 13.5341C11.8936 13.6241 12.1063 13.6242 12.2873 13.5341L17.187 11.0944L16.5864 13.5415ZM12 12.2371C11.645 12.0603 3.49103 8.00023 3.09056 7.80082L12 3.36459L20.9094 7.80082C20.7371 7.88667 12.4276 12.0242 12 12.2371ZM21.0665 19.8605C20.7646 19.5752 20.4219 19.1542 20.4219 18.7579C20.4219 18.3614 20.7649 17.9402 21.0663 17.6552C21.3682 17.9405 21.7109 18.3616 21.7109 18.7579C21.7109 19.1543 21.368 19.5756 21.0665 19.8605ZM21.0664 16.1797C20.711 16.1797 20.4219 15.8906 20.4219 15.5352C20.4219 15.1798 20.711 14.8907 21.0664 14.8907C21.4218 14.8907 21.7109 15.1798 21.7109 15.5352C21.7109 15.8906 21.4218 16.1797 21.0664 16.1797Z" fill="currentColor"/>
<path d="M15.4803 6.04875C15.2057 5.77415 14.7605 5.77415 14.4859 6.04875C13.8219 6.71273 12.939 7.0784 11.9999 7.0784C11.0609 7.0784 10.1781 6.71273 9.51403 6.0487C9.23943 5.77415 8.79426 5.77411 8.51967 6.0487C8.24507 6.32329 8.24507 6.76851 8.51967 7.04311C9.44929 7.97268 10.6853 8.48465 11.9999 8.48465C13.3146 8.48465 14.5506 7.97268 15.4803 7.04311C15.7548 6.76851 15.7549 6.32334 15.4803 6.04875Z" fill="currentColor" stroke="white" stroke-width="0.2"/>
</svg>
